STARTFONT 2.1
COMMENT 
COMMENT This file has been produced by ttf2bdf written by Subhabrata Biswas
COMMENT 
COMMENT For comments, questions, bug reports, send a mail to
COMMENT                                           subhabrata.biswas@usa.net
COMMENT 
FONT -*-Highway Gothic-Medium-R-Normal--21-160-96-96-c-10--fontspecific
SIZE 16 96 96
FONTBOUNDINGBOX 21 25 0 -5
STARTPROPERTIES 15
FOUNDRY "Misc"
FAMILY_NAME "Highway Gothic"
WEIGHT_NAME "Medium"
SLANT "R"
SETWIDTH_NAME "Normal"
PIXEL_SIZE 0
POINT_SIZE 160
RESOLUTION_X 96
RESOLUTION_Y 96
SPACING "C"
CHARSET_ENCODING "fontspecific"
FONT_ASCENT 19
FONT_DESCENT 6
DEFAULT_CHAR 31
COPYRIGHT "You may wish to put your copyright here"
ENDPROPERTIES
CHARS 226
STARTCHAR C0030
ENCODING 30
SWIDTH 468 0
DWIDTH 10 0
BBX 8 17 1 0
BITMAP
FF
81
81
81
81
81
81
81
81
81
81
81
81
81
81
81
FF
ENDCHAR
STARTCHAR C0031
ENCODING 31
SWIDTH 468 0
DWIDTH 10 0
BBX 8 17 1 0
BITMAP
FF
81
81
81
81
81
81
81
81
81
81
81
81
81
81
81
FF
ENDCHAR
STARTCHAR C0032- 
ENCODING 32
SWIDTH 234 0
DWIDTH 5 0
BBX 1 1 0 -1
BITMAP
00
ENDCHAR
STARTCHAR C0033-!
ENCODING 33
SWIDTH 187 0
DWIDTH 4 0
BBX 2 14 1 0
BITMAP
C0
C0
C0
C0
C0
C0
C0
C0
C0
C0
00
00
C0
C0
ENDCHAR
STARTCHAR C0034-"
ENCODING 34
SWIDTH 421 0
DWIDTH 9 0
BBX 6 6 2 8
BITMAP
DC
CC
C8
C8
88
88
ENDCHAR
STARTCHAR C0035-#
ENCODING 35
SWIDTH 656 0
DWIDTH 14 0
BBX 12 14 1 0
BITMAP
0CC0
18C0
18C0
18C0
7FF0
7FF0
9980
3180
FFE0
FFE0
3380
3300
3300
7300
ENDCHAR
STARTCHAR C0036-$
ENCODING 36
SWIDTH 515 0
DWIDTH 11 0
BBX 9 17 1 -2
BITMAP
0C00
3C00
7E00
C700
C000
C000
FC00
7F00
0F00
0180
0180
4180
E380
7F00
3E00
0C00
0C00
ENDCHAR
STARTCHAR C0037-%
ENCODING 37
SWIDTH 468 0
DWIDTH 10 0
BBX 9 14 0 0
BITMAP
3080
4880
4900
3200
0200
0400
0400
0800
0800
1000
2300
2480
4480
C300
ENDCHAR
STARTCHAR C0038-&
ENCODING 38
SWIDTH 609 0
DWIDTH 13 0
BBX 10 14 1 0
BITMAP
3C00
7E00
6600
6000
6000
3000
7800
7D80
CD80
C700
C300
C780
7F80
38C0
ENDCHAR
STARTCHAR C0039-'
ENCODING 39
SWIDTH 234 0
DWIDTH 5 0
BBX 2 6 2 8
BITMAP
C0
C0
C0
C0
C0
80
ENDCHAR
STARTCHAR C0040-(
ENCODING 40
SWIDTH 281 0
DWIDTH 6 0
BBX 4 16 1 -2
BITMAP
30
60
60
40
C0
C0
C0
C0
C0
C0
C0
C0
40
60
60
30
ENDCHAR
STARTCHAR C0041-)
ENCODING 41
SWIDTH 281 0
DWIDTH 6 0
BBX 4 16 1 -2
BITMAP
C0
60
60
20
30
30
30
30
30
30
30
30
20
60
60
C0
ENDCHAR
STARTCHAR C0042-*
ENCODING 42
SWIDTH 468 0
DWIDTH 10 0
BBX 8 7 1 7
BITMAP
18
18
FF
FF
3C
7E
24
ENDCHAR
STARTCHAR C0043-+
ENCODING 43
SWIDTH 515 0
DWIDTH 11 0
BBX 10 10 0 2
BITMAP
0C00
0C00
0C00
0C00
FFC0
FFC0
0C00
0C00
0C00
0C00
ENDCHAR
STARTCHAR C0044-,
ENCODING 44
SWIDTH 187 0
DWIDTH 4 0
BBX 2 4 1 -2
BITMAP
C0
C0
40
80
ENDCHAR
STARTCHAR C0045--
ENCODING 45
SWIDTH 281 0
DWIDTH 6 0
BBX 5 2 1 6
BITMAP
F8
F8
ENDCHAR
STARTCHAR C0046-.
ENCODING 46
SWIDTH 187 0
DWIDTH 4 0
BBX 2 2 1 0
BITMAP
C0
C0
ENDCHAR
STARTCHAR C0047-/
ENCODING 47
SWIDTH 468 0
DWIDTH 10 0
BBX 10 14 0 0
BITMAP
00C0
0180
0180
0300
0300
0600
0C00
0C00
1800
1800
3000
6000
6000
C000
ENDCHAR
STARTCHAR C0048-0
ENCODING 48
SWIDTH 562 0
DWIDTH 12 0
BBX 10 14 1 0
BITMAP
1E00
3F80
6180
C0C0
C0C0
C0C0
C0C0
C0C0
C0C0
C0C0
C0C0
6180
3F80
1E00
ENDCHAR
STARTCHAR C0049-1
ENCODING 49
SWIDTH 328 0
DWIDTH 7 0
BBX 4 14 1 0
BITMAP
30
F0
F0
30
30
30
30
30
30
30
30
30
30
30
ENDCHAR
STARTCHAR C0050-2
ENCODING 50
SWIDTH 562 0
DWIDTH 12 0
BBX 9 14 2 0
BITMAP
3E00
7F00
E380
C180
0180
0380
0700
1E00
3800
7000
6000
C000
FF80
FF80
ENDCHAR
STARTCHAR C0051-3
ENCODING 51
SWIDTH 562 0
DWIDTH 12 0
BBX 9 14 2 0
BITMAP
1E00
3F00
7180
0180
0180
0780
0700
0380
0180
0180
4180
E380
7F00
3E00
ENDCHAR
STARTCHAR C0052-4
ENCODING 52
SWIDTH 562 0
DWIDTH 12 0
BBX 10 14 1 0
BITMAP
0180
0380
0780
0F80
1D80
3980
3980
7180
FFC0
FFC0
0180
0180
0180
0180
ENDCHAR
STARTCHAR C0053-5
ENCODING 53
SWIDTH 562 0
DWIDTH 12 0
BBX 9 14 1 0
BITMAP
7F00
7F00
6000
E000
FE00
FF00
E380
0180
0180
0180
0380
8700
FE00
FC00
ENDCHAR
STARTCHAR C0054-6
ENCODING 54
SWIDTH 515 0
DWIDTH 11 0
BBX 9 14 1 0
BITMAP
0400
1C00
1C00
3800
7000
6000
FE00
FF00
E380
C180
C180
E380
7F00
3E00
ENDCHAR
STARTCHAR C0055-7
ENCODING 55
SWIDTH 562 0
DWIDTH 12 0
BBX 9 14 1 0
BITMAP
FF80
FF80
0380
0300
0700
0600
0E00
0C00
0C00
0C00
1C00
1800
1800
1800
ENDCHAR
STARTCHAR C0056-8
ENCODING 56
SWIDTH 562 0
DWIDTH 12 0
BBX 10 14 1 0
BITMAP
3E00
7F00
E180
C180
E180
FF00
7F80
E1C0
C0C0
C0C0
C0C0
61C0
7F80
1E00
ENDCHAR
STARTCHAR C0057-9
ENCODING 57
SWIDTH 515 0
DWIDTH 11 0
BBX 9 14 1 0
BITMAP
3E00
7F00
E380
C180
C180
E180
7F80
3F80
0300
0700
0600
0E00
1C00
0800
ENDCHAR
STARTCHAR C0058-:
ENCODING 58
SWIDTH 187 0
DWIDTH 4 0
BBX 2 10 1 0
BITMAP
C0
C0
00
00
00
00
00
00
C0
C0
ENDCHAR
STARTCHAR C0059-;
ENCODING 59
SWIDTH 187 0
DWIDTH 4 0
BBX 2 12 1 -2
BITMAP
C0
C0
00
00
00
00
00
00
C0
C0
40
80
ENDCHAR
STARTCHAR C0060-<
ENCODING 60
SWIDTH 562 0
DWIDTH 12 0
BBX 10 11 1 2
BITMAP
0040
01C0
0780
3E00
F000
C000
F800
1E00
0780
01C0
0040
ENDCHAR
STARTCHAR C0061-=
ENCODING 61
SWIDTH 468 0
DWIDTH 10 0
BBX 10 6 0 4
BITMAP
FFC0
FFC0
0000
0000
FFC0
FFC0
ENDCHAR
STARTCHAR C0062->
ENCODING 62
SWIDTH 562 0
DWIDTH 12 0
BBX 10 11 1 2
BITMAP
8000
E000
7C00
0F00
03C0
00C0
03C0
0F00
7C00
E000
8000
ENDCHAR
STARTCHAR C0063-?
ENCODING 63
SWIDTH 515 0
DWIDTH 11 0
BBX 8 14 2 0
BITMAP
3C
7F
E3
43
03
07
0E
1C
18
30
00
00
30
30
ENDCHAR
STARTCHAR C0064-@
ENCODING 64
SWIDTH 703 0
DWIDTH 15 0
BBX 14 14 0 0
BITMAP
0FC0
1830
3008
63C8
C7E4
C7E4
CFE4
CC64
CC64
CFE8
67F0
6000
1810
0FF0
ENDCHAR
STARTCHAR C0065-A
ENCODING 65
SWIDTH 609 0
DWIDTH 13 0
BBX 12 14 0 0
BITMAP
0700
0700
0F00
0F80
0D80
1D80
1DC0
18C0
3FC0
3FE0
3060
7060
6070
E030
ENDCHAR
STARTCHAR C0066-B
ENCODING 66
SWIDTH 515 0
DWIDTH 11 0
BBX 9 14 1 0
BITMAP
FE00
FF00
C380
C180
C180
C380
FF00
FF00
C180
C180
C180
C180
FF00
FE00
ENDCHAR
STARTCHAR C0067-C
ENCODING 67
SWIDTH 562 0
DWIDTH 12 0
BBX 9 14 1 0
BITMAP
3E00
7F00
6380
C000
C000
C000
C000
C000
C000
C000
C000
6380
7F00
3E00
ENDCHAR
STARTCHAR C0068-D
ENCODING 68
SWIDTH 515 0
DWIDTH 11 0
BBX 9 14 1 0
BITMAP
FC00
FF00
C300
C180
C180
C180
C180
C180
C180
C180
C380
C300
FF00
FC00
ENDCHAR
STARTCHAR C0069-E
ENCODING 69
SWIDTH 515 0
DWIDTH 11 0
BBX 9 14 1 0
BITMAP
FF00
FF00
C000
C000
C000
C000
FC00
FC00
C000
C000
C000
C000
FF80
FF80
ENDCHAR
STARTCHAR C0070-F
ENCODING 70
SWIDTH 515 0
DWIDTH 11 0
BBX 9 14 1 0
BITMAP
FF80
FF80
C000
C000
C000
C000
FC00
FC00
C000
C000
C000
C000
C000
C000
ENDCHAR
STARTCHAR C0071-G
ENCODING 71
SWIDTH 562 0
DWIDTH 12 0
BBX 10 14 1 0
BITMAP
3E00
7F00
6380
C000
C000
C000
C000
C7C0
C7C0
C1C0
41C0
6380
3F80
1E00
ENDCHAR
STARTCHAR C0072-H
ENCODING 72
SWIDTH 515 0
DWIDTH 11 0
BBX 9 14 1 0
BITMAP
C180
C180
C180
C180
C180
C180
FF80
FF80
C180
C180
C180
C180
C180
C180
ENDCHAR
STARTCHAR C0073-I
ENCODING 73
SWIDTH 281 0
DWIDTH 6 0
BBX 2 14 2 0
BITMAP
C0
C0
C0
C0
C0
C0
C0
C0
C0
C0
C0
C0
C0
C0
ENDCHAR
STARTCHAR C0074-J
ENCODING 74
SWIDTH 515 0
DWIDTH 11 0
BBX 9 14 1 0
BITMAP
0180
0180
0180
0180
0180
0180
0180
0180
0180
0180
4180
E380
7F00
3E00
ENDCHAR
STARTCHAR C0075-K
ENCODING 75
SWIDTH 562 0
DWIDTH 12 0
BBX 10 14 1 0
BITMAP
C380
C700
CE00
CE00
DC00
F800
FC00
EC00
EE00
C600
C700
C300
C380
C1C0
ENDCHAR
STARTCHAR C0076-L
ENCODING 76
SWIDTH 515 0
DWIDTH 11 0
BBX 9 14 1 0
BITMAP
C000
C000
C000
C000
C000
C000
C000
C000
C000
C000
C000
C000
FF80
FF80
ENDCHAR
STARTCHAR C0077-M
ENCODING 77
SWIDTH 609 0
DWIDTH 13 0
BBX 11 14 1 0
BITMAP
C060
E0E0
E0E0
F1E0
F1E0
F1E0
FBE0
DB60
DF60
CE60
CE60
CE60
C460
C460
ENDCHAR
STARTCHAR C0078-N
ENCODING 78
SWIDTH 515 0
DWIDTH 11 0
BBX 9 14 1 0
BITMAP
C180
E180
E180
F180
F980
D980
DD80
CD80
CF80
C780
C780
C380
C380
C180
ENDCHAR
STARTCHAR C0079-O
ENCODING 79
SWIDTH 562 0
DWIDTH 12 0
BBX 10 14 1 0
BITMAP
1E00
3F80
6180
C0C0
C0C0
C0C0
C0C0
C0C0
C0C0
C0C0
C0C0
6180
3F80
1E00
ENDCHAR
STARTCHAR C0080-P
ENCODING 80
SWIDTH 515 0
DWIDTH 11 0
BBX 9 14 1 0
BITMAP
FE00
FF00
C180
C180
C180
C180
FF00
FE00
C000
C000
C000
C000
C000
C000
ENDCHAR
STARTCHAR C0081-Q
ENCODING 81
SWIDTH 562 0
DWIDTH 12 0
BBX 10 16 1 -2
BITMAP
1E00
3F80
6180
C0C0
C0C0
C0C0
C0C0
C0C0
C0C0
C6C0
CFC0
67C0
3F80
1F80
01C0
0080
ENDCHAR
STARTCHAR C0082-R
ENCODING 82
SWIDTH 515 0
DWIDTH 11 0
BBX 9 14 1 0
BITMAP
FE00
FF00
C180
C180
C180
C180
FF00
FE00
C600
C700
C300
C300
C380
C180
ENDCHAR
STARTCHAR C0083-S
ENCODING 83
SWIDTH 515 0
DWIDTH 11 0
BBX 9 14 1 0
BITMAP
3C00
7E00
C700
C000
C000
FC00
7F00
0F80
0180
0180
4180
E380
7F00
3E00
ENDCHAR
STARTCHAR C0084-T
ENCODING 84
SWIDTH 515 0
DWIDTH 11 0
BBX 8 14 1 0
BITMAP
FF
FF
18
18
18
18
18
18
18
18
18
18
18
18
ENDCHAR
STARTCHAR C0085-U
ENCODING 85
SWIDTH 515 0
DWIDTH 11 0
BBX 9 14 1 0
BITMAP
C180
C180
C180
C180
C180
C180
C180
C180
C180
C180
C180
6300
7F00
3E00
ENDCHAR
STARTCHAR C0086-V
ENCODING 86
SWIDTH 562 0
DWIDTH 12 0
BBX 11 14 0 0
BITMAP
E060
60E0
70C0
30C0
31C0
3980
3980
1B80
1F80
1F00
0F00
0F00
0E00
0600
ENDCHAR
STARTCHAR C0087-W
ENCODING 87
SWIDTH 609 0
DWIDTH 13 0
BBX 13 14 0 0
BITMAP
E718
6738
6738
67B0
6FB0
7FB0
7DB0
3DF0
3CF0
3CF0
38E0
38E0
38E0
3860
ENDCHAR
STARTCHAR C0088-X
ENCODING 88
SWIDTH 515 0
DWIDTH 11 0
BBX 9 14 1 0
BITMAP
E380
6300
7700
3600
3E00
1C00
1C00
1C00
3C00
3E00
7600
6700
E300
C380
ENDCHAR
STARTCHAR C0089-Y
ENCODING 89
SWIDTH 609 0
DWIDTH 13 0
BBX 12 14 1 0
BITMAP
E070
70E0
30C0
39C0
1980
1F00
0F00
0600
0600
0600
0600
0600
0600
0600
ENDCHAR
STARTCHAR C0090-Z
ENCODING 90
SWIDTH 515 0
DWIDTH 11 0
BBX 9 14 1 0
BITMAP
FF80
FF80
0380
0700
0700
0E00
1C00
1C00
3800
7000
7000
E000
FF80
FF80
ENDCHAR
STARTCHAR C0091-[
ENCODING 91
SWIDTH 281 0
DWIDTH 6 0
BBX 4 19 1 -4
BITMAP
F0
F0
80
80
80
80
80
80
80
80
80
80
80
80
80
80
80
F0
F0
ENDCHAR
STARTCHAR C0092-\
ENCODING 92
SWIDTH 468 0
DWIDTH 10 0
BBX 10 14 0 0
BITMAP
C000
6000
6000
3000
1800
1800
0C00
0C00
0600
0300
0300
0180
0180
00C0
ENDCHAR
STARTCHAR C0093-]
ENCODING 93
SWIDTH 281 0
DWIDTH 6 0
BBX 4 19 1 -4
BITMAP
F0
F0
10
10
10
10
10
10
10
10
10
10
10
10
10
10
10
F0
F0
ENDCHAR
STARTCHAR C0094-^
ENCODING 94
SWIDTH 468 0
DWIDTH 10 0
BBX 8 8 1 7
BITMAP
18
18
3C
24
66
66
C3
C3
ENDCHAR
STARTCHAR C0095-_
ENCODING 95
SWIDTH 562 0
DWIDTH 12 0
BBX 12 1 0 -4
BITMAP
FFF0
ENDCHAR
STARTCHAR C0096-`
ENCODING 96
SWIDTH 234 0
DWIDTH 5 0
BBX 3 3 1 11
BITMAP
C0
60
60
ENDCHAR
STARTCHAR C0097-a
ENCODING 97
SWIDTH 468 0
DWIDTH 10 0
BBX 8 11 1 0
BITMAP
3C
7E
27
03
3F
7F
C3
C3
C3
7F
3F
ENDCHAR
STARTCHAR C0098-b
ENCODING 98
SWIDTH 468 0
DWIDTH 10 0
BBX 8 14 1 0
BITMAP
40
C0
C0
C0
FC
FE
C7
C3
C3
C3
C3
C7
FE
FC
ENDCHAR
STARTCHAR C0099-c
ENCODING 99
SWIDTH 468 0
DWIDTH 10 0
BBX 8 10 1 0
BITMAP
3C
7E
E7
C0
C0
C0
C0
E7
7E
3C
ENDCHAR
STARTCHAR C0100-d
ENCODING 100
SWIDTH 468 0
DWIDTH 10 0
BBX 8 14 1 0
BITMAP
01
03
03
03
3F
7F
E3
C3
C3
C3
C3
E3
7F
3F
ENDCHAR
STARTCHAR C0101-e
ENCODING 101
SWIDTH 468 0
DWIDTH 10 0
BBX 8 10 1 0
BITMAP
3C
7E
E7
C3
FF
FF
C0
E2
7F
3C
ENDCHAR
STARTCHAR C0102-f
ENCODING 102
SWIDTH 281 0
DWIDTH 6 0
BBX 5 14 0 0
BITMAP
38
78
60
60
F8
F8
60
60
60
60
60
60
60
60
ENDCHAR
STARTCHAR C0103-g
ENCODING 103
SWIDTH 468 0
DWIDTH 10 0
BBX 8 15 1 -5
BITMAP
3F
7F
E3
C3
C3
C3
C3
E3
7F
3F
03
03
06
0E
0C
ENDCHAR
STARTCHAR C0104-h
ENCODING 104
SWIDTH 468 0
DWIDTH 10 0
BBX 8 14 1 0
BITMAP
40
C0
C0
C0
FC
FE
E7
C3
C3
C3
C3
C3
C3
C3
ENDCHAR
STARTCHAR C0105-i
ENCODING 105
SWIDTH 234 0
DWIDTH 5 0
BBX 2 14 2 0
BITMAP
C0
C0
00
00
C0
C0
C0
C0
C0
C0
C0
C0
C0
C0
ENDCHAR
STARTCHAR C0106-j
ENCODING 106
SWIDTH 234 0
DWIDTH 5 0
BBX 3 19 1 -5
BITMAP
60
60
00
00
60
60
60
60
60
60
60
60
60
60
60
60
C0
C0
80
ENDCHAR
STARTCHAR C0107-k
ENCODING 107
SWIDTH 515 0
DWIDTH 11 0
BBX 9 14 1 0
BITMAP
4000
C000
C000
C000
CF00
DC00
F800
F800
FC00
CC00
CE00
C600
C700
C380
ENDCHAR
STARTCHAR C0108-l
ENCODING 108
SWIDTH 234 0
DWIDTH 5 0
BBX 2 14 2 0
BITMAP
40
C0
C0
C0
C0
C0
C0
C0
C0
C0
C0
C0
C0
C0
ENDCHAR
STARTCHAR C0109-m
ENCODING 109
SWIDTH 750 0
DWIDTH 16 0
BBX 14 11 1 0
BITMAP
7CF0
FFF8
E79C
C30C
C30C
C30C
C30C
C30C
C30C
C30C
C30C
ENDCHAR
STARTCHAR C0110-n
ENCODING 110
SWIDTH 468 0
DWIDTH 10 0
BBX 8 10 1 0
BITMAP
FC
FE
E7
C3
C3
C3
C3
C3
C3
C3
ENDCHAR
STARTCHAR C0111-o
ENCODING 111
SWIDTH 468 0
DWIDTH 10 0
BBX 8 10 1 0
BITMAP
3C
7E
E7
C3
C3
C3
C3
E7
7E
3C
ENDCHAR
STARTCHAR C0112-p
ENCODING 112
SWIDTH 468 0
DWIDTH 10 0
BBX 8 15 1 -5
BITMAP
FC
FE
C7
C3
C3
C3
C3
C7
FE
FC
C0
C0
C0
C0
80
ENDCHAR
STARTCHAR C0113-q
ENCODING 113
SWIDTH 468 0
DWIDTH 10 0
BBX 8 15 1 -5
BITMAP
3F
7F
E3
C3
C3
C3
C3
E3
7F
3F
03
03
03
03
02
ENDCHAR
STARTCHAR C0114-r
ENCODING 114
SWIDTH 328 0
DWIDTH 7 0
BBX 6 11 1 0
BITMAP
18
FC
F8
C0
C0
C0
C0
C0
C0
C0
C0
ENDCHAR
STARTCHAR C0115-s
ENCODING 115
SWIDTH 421 0
DWIDTH 9 0
BBX 7 11 1 0
BITMAP
3C
7E
C4
E0
78
3C
0E
06
46
FE
7C
ENDCHAR
STARTCHAR C0116-t
ENCODING 116
SWIDTH 281 0
DWIDTH 6 0
BBX 5 14 1 0
BITMAP
20
60
60
60
F8
F8
60
60
60
60
60
60
78
30
ENDCHAR
STARTCHAR C0117-u
ENCODING 117
SWIDTH 468 0
DWIDTH 10 0
BBX 8 10 1 0
BITMAP
C3
C3
C3
C3
C3
C3
C3
E7
7F
3F
ENDCHAR
STARTCHAR C0118-v
ENCODING 118
SWIDTH 515 0
DWIDTH 11 0
BBX 10 10 0 0
BITMAP
E0C0
61C0
7180
3380
3300
1B00
1F00
1E00
0E00
0C00
ENDCHAR
STARTCHAR C0119-w
ENCODING 119
SWIDTH 656 0
DWIDTH 14 0
BBX 13 10 0 0
BITMAP
E718
6718
67B8
6FB0
7DB0
3DF0
3CF0
38E0
38E0
3860
ENDCHAR
STARTCHAR C0120-x
ENCODING 120
SWIDTH 515 0
DWIDTH 11 0
BBX 11 10 0 0
BITMAP
71C0
3B80
1B00
1E00
0E00
1F00
1B00
3B80
71C0
E0E0
ENDCHAR
STARTCHAR C0121-y
ENCODING 121
SWIDTH 515 0
DWIDTH 11 0
BBX 11 15 0 -5
BITMAP
E0E0
60C0
71C0
3180
3380
3B80
1B00
1F00
0E00
0E00
0C00
0C00
1C00
1800
3800
ENDCHAR
STARTCHAR C0122-z
ENCODING 122
SWIDTH 421 0
DWIDTH 9 0
BBX 7 10 1 0
BITMAP
FE
FE
0E
1C
18
30
70
E0
FE
FE
ENDCHAR
STARTCHAR C0123-{
ENCODING 123
SWIDTH 328 0
DWIDTH 7 0
BBX 5 19 1 -4
BITMAP
18
38
30
20
20
20
20
60
60
C0
C0
60
20
20
20
20
20
38
18
ENDCHAR
STARTCHAR C0124-|
ENCODING 124
SWIDTH 187 0
DWIDTH 4 0
BBX 1 19 2 -4
BITMAP
80
80
80
80
80
80
80
80
80
80
80
80
80
80
80
80
80
80
80
ENDCHAR
STARTCHAR C0125-}
ENCODING 125
SWIDTH 328 0
DWIDTH 7 0
BBX 5 19 1 -4
BITMAP
C0
E0
60
20
20
20
20
30
30
18
18
30
20
20
20
20
20
E0
C0
ENDCHAR
STARTCHAR C0126-~
ENCODING 126
SWIDTH 562 0
DWIDTH 12 0
BBX 10 3 1 6
BITMAP
7840
FFC0
87C0
ENDCHAR
STARTCHAR C0127
ENCODING 127
SWIDTH 468 0
DWIDTH 10 0
BBX 8 17 1 0
BITMAP
FF
81
81
81
81
81
81
81
81
81
81
81
81
81
81
81
FF
ENDCHAR
STARTCHAR C0128
ENCODING 128
SWIDTH 562 0
DWIDTH 12 0
BBX 10 14 1 0
BITMAP
0F00
3F80
31C0
7000
6000
FC00
6000
6000
FC00
6000
7000
31C0
3F80
0F00
ENDCHAR
STARTCHAR C0129
ENCODING 129
SWIDTH 468 0
DWIDTH 10 0
BBX 8 17 1 0
BITMAP
FF
81
81
81
81
81
81
81
81
81
81
81
81
81
81
81
FF
ENDCHAR
STARTCHAR C0130
ENCODING 130
SWIDTH 187 0
DWIDTH 4 0
BBX 2 4 1 -2
BITMAP
C0
C0
40
80
ENDCHAR
STARTCHAR C0131
ENCODING 131
SWIDTH 281 0
DWIDTH 6 0
BBX 5 19 0 -5
BITMAP
38
78
60
60
F8
F8
60
60
60
60
60
60
60
60
60
60
60
60
40
ENDCHAR
STARTCHAR C0132
ENCODING 132
SWIDTH 375 0
DWIDTH 8 0
BBX 6 4 1 -2
BITMAP
CC
CC
44
88
ENDCHAR
STARTCHAR C0133
ENCODING 133
SWIDTH 656 0
DWIDTH 14 0
BBX 12 2 1 0
BITMAP
C630
C630
ENDCHAR
STARTCHAR C0134
ENCODING 134
SWIDTH 468 0
DWIDTH 10 0
BBX 9 17 0 -2
BITMAP
0800
0800
0800
0800
0800
FF80
0800
0800
0800
0800
0800
0800
0800
0800
0800
0800
0800
ENDCHAR
STARTCHAR C0135
ENCODING 135
SWIDTH 468 0
DWIDTH 10 0
BBX 9 17 0 -2
BITMAP
0800
0800
0800
0800
0800
FF80
0800
0800
0800
0800
0800
0800
FF80
0800
0800
0800
0800
ENDCHAR
STARTCHAR C0136
ENCODING 136
SWIDTH 328 0
DWIDTH 7 0
BBX 6 3 0 11
BITMAP
38
78
CC
ENDCHAR
STARTCHAR C0137
ENCODING 137
SWIDTH 703 0
DWIDTH 15 0
BBX 13 14 1 0
BITMAP
6180
9100
9200
6400
0400
0800
0800
1000
1000
2000
4630
4948
8948
8630
ENDCHAR
STARTCHAR C0138
ENCODING 138
SWIDTH 515 0
DWIDTH 11 0
BBX 9 18 1 0
BITMAP
6300
3E00
1C00
0000
3C00
7E00
C700
C000
C000
FC00
7F00
0F80
0180
0180
4180
E380
7F00
3E00
ENDCHAR
STARTCHAR C0139
ENCODING 139
SWIDTH 281 0
DWIDTH 6 0
BBX 5 9 0 2
BITMAP
18
38
30
60
E0
60
30
38
18
ENDCHAR
STARTCHAR C0140
ENCODING 140
SWIDTH 890 0
DWIDTH 19 0
BBX 17 14 1 0
BITMAP
1EFF00
3FFF00
61C000
C1C000
C0C000
C0C000
C0FC00
C0FC00
C0C000
C0C000
C1C000
63FF80
3FFF80
1E0000
ENDCHAR
STARTCHAR C0141
ENCODING 141
SWIDTH 468 0
DWIDTH 10 0
BBX 8 17 1 0
BITMAP
FF
81
81
81
81
81
81
81
81
81
81
81
81
81
81
81
FF
ENDCHAR
STARTCHAR C0142
ENCODING 142
SWIDTH 515 0
DWIDTH 11 0
BBX 9 18 1 0
BITMAP
6300
3600
1C00
0000
FF80
FF80
0380
0700
0700
0E00
1C00
1C00
3800
7000
7000
E000
FF80
FF80
ENDCHAR
STARTCHAR C0143
ENCODING 143
SWIDTH 468 0
DWIDTH 10 0
BBX 8 17 1 0
BITMAP
FF
81
81
81
81
81
81
81
81
81
81
81
81
81
81
81
FF
ENDCHAR
STARTCHAR C0144
ENCODING 144
SWIDTH 468 0
DWIDTH 10 0
BBX 8 17 1 0
BITMAP
FF
81
81
81
81
81
81
81
81
81
81
81
81
81
81
81
FF
ENDCHAR
STARTCHAR C0145
ENCODING 145
SWIDTH 187 0
DWIDTH 4 0
BBX 2 4 1 10
BITMAP
40
80
C0
C0
ENDCHAR
STARTCHAR C0146
ENCODING 146
SWIDTH 187 0
DWIDTH 4 0
BBX 2 4 1 10
BITMAP
C0
C0
40
80
ENDCHAR
STARTCHAR C0147
ENCODING 147
SWIDTH 375 0
DWIDTH 8 0
BBX 6 4 1 10
BITMAP
44
88
CC
CC
ENDCHAR
STARTCHAR C0148
ENCODING 148
SWIDTH 375 0
DWIDTH 8 0
BBX 6 4 1 10
BITMAP
CC
CC
44
88
ENDCHAR
STARTCHAR C0149
ENCODING 149
SWIDTH 609 0
DWIDTH 13 0
BBX 11 11 1 1
BITMAP
1F00
3F80
7FC0
7FE0
FFE0
FFE0
FFE0
7FE0
7FC0
3F80
1F00
ENDCHAR
STARTCHAR C0150
ENCODING 150
SWIDTH 515 0
DWIDTH 11 0
BBX 10 2 1 6
BITMAP
FFC0
FFC0
ENDCHAR
STARTCHAR C0151
ENCODING 151
SWIDTH 984 0
DWIDTH 21 0
BBX 19 2 1 6
BITMAP
FFFFE0
FFFFE0
ENDCHAR
STARTCHAR C0152
ENCODING 152
SWIDTH 328 0
DWIDTH 7 0
BBX 6 2 0 12
BITMAP
7C
FC
ENDCHAR
STARTCHAR C0153
ENCODING 153
SWIDTH 750 0
DWIDTH 16 0
BBX 14 7 1 7
BITMAP
FB0C
238C
239C
23DC
236C
232C
232C
ENDCHAR
STARTCHAR C0154
ENCODING 154
SWIDTH 421 0
DWIDTH 9 0
BBX 7 14 1 0
BITMAP
CC
78
38
3C
7E
C4
E0
78
3C
0E
06
46
FE
7C
ENDCHAR
STARTCHAR C0155
ENCODING 155
SWIDTH 281 0
DWIDTH 6 0
BBX 5 9 0 2
BITMAP
E0
70
30
38
18
38
30
70
E0
ENDCHAR
STARTCHAR C0156
ENCODING 156
SWIDTH 750 0
DWIDTH 16 0
BBX 14 10 1 0
BITMAP
3CF0
7FF8
E79C
C30C
C3FC
C3FC
C300
E798
7FFC
3CF0
ENDCHAR
STARTCHAR C0157
ENCODING 157
SWIDTH 468 0
DWIDTH 10 0
BBX 8 17 1 0
BITMAP
FF
81
81
81
81
81
81
81
81
81
81
81
81
81
81
81
FF
ENDCHAR
STARTCHAR C0158
ENCODING 158
SWIDTH 421 0
DWIDTH 9 0
BBX 7 14 1 0
BITMAP
C4
68
38
00
FE
FE
0E
1C
18
30
70
E0
FE
FE
ENDCHAR
STARTCHAR C0159
ENCODING 159
SWIDTH 609 0
DWIDTH 13 0
BBX 12 17 0 0
BITMAP
0D80
0D80
0000
E070
70E0
30C0
39C0
1980
0F00
0F00
0600
0600
0600
0600
0600
0600
0600
ENDCHAR
STARTCHAR C0160
ENCODING 160
SWIDTH 234 0
DWIDTH 5 0
BBX 1 1 0 -1
BITMAP
00
ENDCHAR
STARTCHAR C0161
ENCODING 161
SWIDTH 187 0
DWIDTH 4 0
BBX 2 14 1 0
BITMAP
C0
C0
00
00
C0
C0
C0
C0
C0
C0
C0
C0
C0
C0
ENDCHAR
STARTCHAR C0162
ENCODING 162
SWIDTH 468 0
DWIDTH 10 0
BBX 8 14 1 0
BITMAP
08
08
3C
7E
EF
C8
C8
C8
C8
EF
7E
3C
08
08
ENDCHAR
STARTCHAR C0163
ENCODING 163
SWIDTH 468 0
DWIDTH 10 0
BBX 9 14 0 0
BITMAP
0E00
1F80
3100
3000
3000
7C00
7C00
3000
3000
3000
7000
6000
FF80
FF80
ENDCHAR
STARTCHAR C0164
ENCODING 164
SWIDTH 562 0
DWIDTH 12 0
BBX 11 10 0 2
BITMAP
7F40
FFE0
31C0
60C0
60C0
60C0
71C0
3FC0
7FE0
C040
ENDCHAR
STARTCHAR C0165
ENCODING 165
SWIDTH 609 0
DWIDTH 13 0
BBX 12 14 1 0
BITMAP
E070
70E0
30C0
39C0
1980
1F00
0F00
0600
FFF0
FFF0
0600
0600
0600
0600
ENDCHAR
STARTCHAR C0166
ENCODING 166
SWIDTH 187 0
DWIDTH 4 0
BBX 1 19 2 -4
BITMAP
80
80
80
80
80
80
80
80
00
00
00
80
80
80
80
80
80
80
80
ENDCHAR
STARTCHAR C0167
ENCODING 167
SWIDTH 421 0
DWIDTH 9 0
BBX 8 15 0 -1
BITMAP
3C
7F
62
60
3C
3F
67
63
73
3E
07
03
63
FF
3C
ENDCHAR
STARTCHAR C0168
ENCODING 168
SWIDTH 328 0
DWIDTH 7 0
BBX 5 2 1 12
BITMAP
D8
D8
ENDCHAR
STARTCHAR C0169
ENCODING 169
SWIDTH 750 0
DWIDTH 16 0
BBX 14 14 1 0
BITMAP
0FC0
1860
2010
4F08
9884
9044
9004
9004
90C4
9884
4F08
2010
1860
0FC0
ENDCHAR
STARTCHAR C0170
ENCODING 170
SWIDTH 281 0
DWIDTH 6 0
BBX 4 8 1 7
BITMAP
E0
F0
10
70
90
90
90
70
ENDCHAR
STARTCHAR C0171
ENCODING 171
SWIDTH 515 0
DWIDTH 11 0
BBX 9 9 1 2
BITMAP
3180
7300
6700
E600
CE00
E600
6700
7300
3180
ENDCHAR
STARTCHAR C0172
ENCODING 172
SWIDTH 515 0
DWIDTH 11 0
BBX 10 5 0 3
BITMAP
FFC0
FFC0
00C0
00C0
00C0
ENDCHAR
STARTCHAR C0173
ENCODING 173
SWIDTH 281 0
DWIDTH 6 0
BBX 5 2 1 6
BITMAP
F8
F8
ENDCHAR
STARTCHAR C0174
ENCODING 174
SWIDTH 703 0
DWIDTH 15 0
BBX 13 14 1 0
BITMAP
0F80
3060
2030
5F10
9088
9088
9F08
9308
9108
9088
4050
2030
3060
0F80
ENDCHAR
STARTCHAR C0175
ENCODING 175
SWIDTH 328 0
DWIDTH 7 0
BBX 5 1 1 13
BITMAP
F8
ENDCHAR
STARTCHAR C0176
ENCODING 176
SWIDTH 375 0
DWIDTH 8 0
BBX 6 6 1 8
BITMAP
78
CC
84
84
CC
78
ENDCHAR
STARTCHAR C0177
ENCODING 177
SWIDTH 515 0
DWIDTH 11 0
BBX 10 12 0 0
BITMAP
0C00
0C00
0C00
FFC0
FFC0
0C00
0C00
0C00
0C00
0000
7FC0
7FC0
ENDCHAR
STARTCHAR C0178
ENCODING 178
SWIDTH 328 0
DWIDTH 7 0
BBX 5 8 1 6
BITMAP
70
C8
08
18
30
40
80
F8
ENDCHAR
STARTCHAR C0179
ENCODING 179
SWIDTH 328 0
DWIDTH 7 0
BBX 5 8 1 6
BITMAP
70
C8
08
18
08
08
C8
70
ENDCHAR
STARTCHAR C0180
ENCODING 180
SWIDTH 234 0
DWIDTH 5 0
BBX 3 3 1 11
BITMAP
60
C0
80
ENDCHAR
STARTCHAR C0181
ENCODING 181
SWIDTH 468 0
DWIDTH 10 0
BBX 8 13 1 -3
BITMAP
C3
C3
C3
C3
C3
C3
C3
E7
FF
FF
C2
C0
80
ENDCHAR
STARTCHAR C0182
ENCODING 182
SWIDTH 328 0
DWIDTH 7 0
BBX 7 14 0 0
BITMAP
7E
F4
F4
F4
F4
74
14
14
14
14
14
14
14
14
ENDCHAR
STARTCHAR C0183
ENCODING 183
SWIDTH 187 0
DWIDTH 4 0
BBX 2 2 1 8
BITMAP
C0
C0
ENDCHAR
STARTCHAR C0184
ENCODING 184
SWIDTH 281 0
DWIDTH 6 0
BBX 5 4 0 -4
BITMAP
20
38
18
F0
ENDCHAR
STARTCHAR C0185
ENCODING 185
SWIDTH 187 0
DWIDTH 4 0
BBX 2 8 1 6
BITMAP
C0
C0
40
40
40
40
40
40
ENDCHAR
STARTCHAR C0186
ENCODING 186
SWIDTH 375 0
DWIDTH 8 0
BBX 6 7 1 7
BITMAP
78
CC
CC
CC
CC
CC
78
ENDCHAR
STARTCHAR C0187
ENCODING 187
SWIDTH 515 0
DWIDTH 11 0
BBX 9 9 1 2
BITMAP
CE00
E700
6300
7380
3180
7380
6300
E700
CE00
ENDCHAR
STARTCHAR C0188
ENCODING 188
SWIDTH 843 0
DWIDTH 18 0
BBX 16 14 1 0
BITMAP
4018
C010
4020
4060
4040
4086
410E
431E
4216
0426
0C66
08FF
1006
3006
ENDCHAR
STARTCHAR C0189
ENCODING 189
SWIDTH 890 0
DWIDTH 19 0
BBX 17 14 1 0
BITMAP
401000
C02000
406000
404000
408000
418F00
411980
420080
460180
040700
080E00
180C00
101800
201F80
ENDCHAR
STARTCHAR C0190
ENCODING 190
SWIDTH 890 0
DWIDTH 19 0
BBX 17 14 1 0
BITMAP
380400
640800
041800
1C1000
1C2000
046300
044700
C48F00
798B00
011B00
023300
067F80
040300
080300
ENDCHAR
STARTCHAR C0191
ENCODING 191
SWIDTH 515 0
DWIDTH 11 0
BBX 8 14 1 0
BITMAP
18
18
00
00
18
30
30
60
60
C0
C2
C7
7E
3C
ENDCHAR
STARTCHAR C0192
ENCODING 192
SWIDTH 609 0
DWIDTH 13 0
BBX 12 18 0 0
BITMAP
0E00
0300
0300
0000
0700
0700
0F00
0F80
0D80
1D80
1DC0
18C0
3FC0
3FE0
3060
7060
6070
E030
ENDCHAR
STARTCHAR C0193
ENCODING 193
SWIDTH 609 0
DWIDTH 13 0
BBX 12 18 0 0
BITMAP
0300
0600
0400
0800
0700
0700
0F00
0F80
0D80
1D80
1DC0
18C0
3FC0
3FE0
3060
7060
6070
E030
ENDCHAR
STARTCHAR C0194
ENCODING 194
SWIDTH 609 0
DWIDTH 13 0
BBX 12 18 0 0
BITMAP
0700
0F00
0980
1000
0700
0700
0F00
0F80
0D80
1D80
1DC0
18C0
3FC0
3FE0
3060
7060
6070
E030
ENDCHAR
STARTCHAR C0195
ENCODING 195
SWIDTH 609 0
DWIDTH 13 0
BBX 12 17 0 0
BITMAP
0F80
0F80
1000
0700
0700
0F00
0F80
0D80
1D80
1DC0
18C0
3FC0
3FE0
3060
7060
6070
E030
ENDCHAR
STARTCHAR C0196
ENCODING 196
SWIDTH 609 0
DWIDTH 13 0
BBX 12 17 0 0
BITMAP
0D80
0D80
0000
0700
0700
0F00
0F80
0D80
1D80
1DC0
18C0
3FC0
3FE0
3060
7060
6070
E030
ENDCHAR
STARTCHAR C0197
ENCODING 197
SWIDTH 609 0
DWIDTH 13 0
BBX 12 18 0 0
BITMAP
0700
0880
0880
0700
0600
0700
0F00
0F80
0D80
1D80
1DC0
38C0
3FC0
3FE0
7060
6060
6070
E030
ENDCHAR
STARTCHAR C0198
ENCODING 198
SWIDTH 843 0
DWIDTH 18 0
BBX 17 14 1 0
BITMAP
01FF00
03FF00
03C000
07C000
06C000
0EC000
0CFC00
1CFC00
1FC000
3FC000
30C000
60C000
60FF80
E0FF80
ENDCHAR
STARTCHAR C0199
ENCODING 199
SWIDTH 562 0
DWIDTH 12 0
BBX 9 18 1 -4
BITMAP
3E00
7F00
6380
C000
C000
C000
C000
C000
C000
C000
C000
6380
7F00
3E00
0400
0700
0300
1F00
ENDCHAR
STARTCHAR C0200
ENCODING 200
SWIDTH 515 0
DWIDTH 11 0
BBX 9 18 1 0
BITMAP
3800
0C00
0C00
0000
FF00
FF00
C000
C000
C000
C000
FC00
FC00
C000
C000
C000
C000
FF80
FF80
ENDCHAR
STARTCHAR C0201
ENCODING 201
SWIDTH 515 0
DWIDTH 11 0
BBX 9 18 1 0
BITMAP
0C00
1800
1000
2000
FF00
FF00
C000
C000
C000
C000
FC00
FC00
C000
C000
C000
C000
FF80
FF80
ENDCHAR
STARTCHAR C0202
ENCODING 202
SWIDTH 515 0
DWIDTH 11 0
BBX 9 18 1 0
BITMAP
1C00
3C00
6600
0000
FF00
FF00
C000
C000
C000
C000
FC00
FC00
C000
C000
C000
C000
FF80
FF80
ENDCHAR
STARTCHAR C0203
ENCODING 203
SWIDTH 515 0
DWIDTH 11 0
BBX 9 17 1 0
BITMAP
6600
6600
0000
FF00
FF00
C000
C000
C000
C000
FC00
FC00
C000
C000
C000
C000
FF80
FF80
ENDCHAR
STARTCHAR C0204
ENCODING 204
SWIDTH 281 0
DWIDTH 6 0
BBX 4 18 1 0
BITMAP
E0
60
30
00
60
60
60
60
60
60
60
60
60
60
60
60
60
60
ENDCHAR
STARTCHAR C0205
ENCODING 205
SWIDTH 281 0
DWIDTH 6 0
BBX 4 18 1 0
BITMAP
70
60
C0
00
60
60
60
60
60
60
60
60
60
60
60
60
60
60
ENDCHAR
STARTCHAR C0206
ENCODING 206
SWIDTH 281 0
DWIDTH 6 0
BBX 6 18 0 0
BITMAP
70
78
CC
00
30
30
30
30
30
30
30
30
30
30
30
30
30
30
ENDCHAR
STARTCHAR C0207
ENCODING 207
SWIDTH 328 0
DWIDTH 7 0
BBX 6 17 0 0
BITMAP
CC
CC
00
60
60
60
60
60
60
60
60
60
60
60
60
60
60
ENDCHAR
STARTCHAR C0208
ENCODING 208
SWIDTH 609 0
DWIDTH 13 0
BBX 11 14 1 0
BITMAP
3F00
3F80
30C0
3060
3060
3060
FC60
FC60
3060
3060
30E0
30C0
3F80
3F00
ENDCHAR
STARTCHAR C0209
ENCODING 209
SWIDTH 515 0
DWIDTH 11 0
BBX 9 17 1 0
BITMAP
1F00
3E00
2000
C180
E180
E180
F180
F980
D980
DD80
CD80
CF80
C780
C780
C380
C380
C180
ENDCHAR
STARTCHAR C0210
ENCODING 210
SWIDTH 562 0
DWIDTH 12 0
BBX 10 18 1 0
BITMAP
1C00
0C00
0600
0000
1E00
3F80
6180
C0C0
C0C0
C0C0
C0C0
C0C0
C0C0
C0C0
C0C0
6180
3F80
1E00
ENDCHAR
STARTCHAR C0211
ENCODING 211
SWIDTH 562 0
DWIDTH 12 0
BBX 10 18 1 0
BITMAP
0E00
0C00
1800
0000
1E00
3F80
6180
C0C0
C0C0
C0C0
C0C0
C0C0
C0C0
C0C0
C0C0
6180
3F80
1E00
ENDCHAR
STARTCHAR C0212
ENCODING 212
SWIDTH 562 0
DWIDTH 12 0
BBX 10 18 1 0
BITMAP
0E00
1E00
3300
0000
1E00
3F80
6180
C0C0
C0C0
C0C0
C0C0
C0C0
C0C0
C0C0
C0C0
6180
3F80
1E00
ENDCHAR
STARTCHAR C0213
ENCODING 213
SWIDTH 562 0
DWIDTH 12 0
BBX 10 17 1 0
BITMAP
1F00
3E00
2000
1E00
3F80
6180
C0C0
C0C0
C0C0
C0C0
C0C0
C0C0
C0C0
C0C0
6180
3F80
1E00
ENDCHAR
STARTCHAR C0214
ENCODING 214
SWIDTH 562 0
DWIDTH 12 0
BBX 10 17 1 0
BITMAP
3300
3300
0000
1E00
3F00
6380
C1C0
C0C0
C0C0
C0C0
C0C0
C0C0
C0C0
C1C0
6180
3F00
1E00
ENDCHAR
STARTCHAR C0215
ENCODING 215
SWIDTH 562 0
DWIDTH 12 0
BBX 9 9 2 3
BITMAP
8100
C380
6600
3C00
1800
3C00
6600
C300
8180
ENDCHAR
STARTCHAR C0216
ENCODING 216
SWIDTH 562 0
DWIDTH 12 0
BBX 12 14 0 0
BITMAP
0F70
1FE0
30C0
61E0
61E0
6360
6660
6660
6C60
7860
7060
30C0
7FC0
CF00
ENDCHAR
STARTCHAR C0217
ENCODING 217
SWIDTH 515 0
DWIDTH 11 0
BBX 9 18 1 0
BITMAP
1800
0C00
0C00
0000
C180
C180
C180
C180
C180
C180
C180
C180
C180
C180
C180
E380
7F00
3E00
ENDCHAR
STARTCHAR C0218
ENCODING 218
SWIDTH 515 0
DWIDTH 11 0
BBX 9 18 1 0
BITMAP
0C00
1800
1000
0000
C180
C180
C180
C180
C180
C180
C180
C180
C180
C180
C180
E380
7F00
3E00
ENDCHAR
STARTCHAR C0219
ENCODING 219
SWIDTH 515 0
DWIDTH 11 0
BBX 9 18 1 0
BITMAP
1C00
3600
2200
0000
C180
C180
C180
C180
C180
C180
C180
C180
C180
C180
C180
E380
7F00
3E00
ENDCHAR
STARTCHAR C0220
ENCODING 220
SWIDTH 562 0
DWIDTH 12 0
BBX 10 17 1 0
BITMAP
3300
3300
0000
C0C0
C0C0
C0C0
C0C0
C0C0
C0C0
C0C0
C0C0
C0C0
C0C0
C0C0
E1C0
7F80
1E00
ENDCHAR
STARTCHAR C0221
ENCODING 221
SWIDTH 609 0
DWIDTH 13 0
BBX 12 18 1 0
BITMAP
0600
0C00
0C00
0000
E070
70E0
30C0
39C0
1980
0F00
0F00
0600
0600
0600
0600
0600
0600
0600
ENDCHAR
STARTCHAR C0222
ENCODING 222
SWIDTH 515 0
DWIDTH 11 0
BBX 9 14 1 0
BITMAP
C000
C000
C000
FE00
FF00
C180
C180
C180
C180
FF00
FE00
C000
C000
C000
ENDCHAR
STARTCHAR C0223
ENCODING 223
SWIDTH 515 0
DWIDTH 11 0
BBX 9 17 1 -3
BITMAP
3E00
7F00
E380
C180
C180
CF00
CF00
C180
C180
C180
C180
C380
CF00
CE00
C000
C000
8000
ENDCHAR
STARTCHAR C0224
ENCODING 224
SWIDTH 468 0
DWIDTH 10 0
BBX 8 14 1 0
BITMAP
38
1C
0C
08
7E
7F
03
3F
7F
C3
C3
C3
7F
3F
ENDCHAR
STARTCHAR C0225
ENCODING 225
SWIDTH 468 0
DWIDTH 10 0
BBX 8 14 1 0
BITMAP
1C
18
30
08
7E
7F
03
3F
7F
C3
C3
C3
7F
3F
ENDCHAR
STARTCHAR C0226
ENCODING 226
SWIDTH 468 0
DWIDTH 10 0
BBX 8 14 1 0
BITMAP
3C
3C
62
08
7E
7F
03
3F
7F
C3
C3
C3
7F
3F
ENDCHAR
STARTCHAR C0227
ENCODING 227
SWIDTH 468 0
DWIDTH 10 0
BBX 8 14 1 0
BITMAP
3E
7C
40
08
7E
7F
03
3F
7F
C3
C3
C3
7F
3F
ENDCHAR
STARTCHAR C0228
ENCODING 228
SWIDTH 468 0
DWIDTH 10 0
BBX 8 14 1 0
BITMAP
66
66
00
08
7E
7F
03
3F
7F
C3
C3
C3
7F
3F
ENDCHAR
STARTCHAR C0229
ENCODING 229
SWIDTH 421 0
DWIDTH 9 0
BBX 7 15 1 0
BITMAP
18
24
24
18
10
FC
FE
06
7E
7E
C6
C6
C6
7E
3A
ENDCHAR
STARTCHAR C0230
ENCODING 230
SWIDTH 750 0
DWIDTH 16 0
BBX 14 10 1 0
BITMAP
3EF0
7FF8
439C
3F0C
7FFC
C3FC
C300
C398
7FFC
3CF0
ENDCHAR
STARTCHAR C0231
ENCODING 231
SWIDTH 468 0
DWIDTH 10 0
BBX 8 14 1 -4
BITMAP
3C
7E
E7
C0
C0
C0
C0
E7
7E
3C
08
0E
06
3E
ENDCHAR
STARTCHAR C0232
ENCODING 232
SWIDTH 468 0
DWIDTH 10 0
BBX 8 14 1 0
BITMAP
38
18
0C
00
3C
7E
E7
C3
FF
FF
C0
E2
7F
3C
ENDCHAR
STARTCHAR C0233
ENCODING 233
SWIDTH 468 0
DWIDTH 10 0
BBX 8 14 1 0
BITMAP
1C
18
30
00
3C
7E
E7
C3
FF
FF
C0
E2
7F
3C
ENDCHAR
STARTCHAR C0234
ENCODING 234
SWIDTH 468 0
DWIDTH 10 0
BBX 8 14 1 0
BITMAP
18
3C
66
00
3C
7E
E7
C3
FF
FF
C0
E2
7F
3C
ENDCHAR
STARTCHAR C0235
ENCODING 235
SWIDTH 468 0
DWIDTH 10 0
BBX 8 14 1 0
BITMAP
66
66
00
00
3C
7E
E7
C3
FF
FF
C0
E6
7F
3C
ENDCHAR
STARTCHAR C0236
ENCODING 236
SWIDTH 234 0
DWIDTH 5 0
BBX 3 14 1 0
BITMAP
C0
60
20
00
60
60
60
60
60
60
60
60
60
60
ENDCHAR
STARTCHAR C0237
ENCODING 237
SWIDTH 234 0
DWIDTH 5 0
BBX 3 14 1 0
BITMAP
60
C0
C0
00
60
60
60
60
60
60
60
60
60
60
ENDCHAR
STARTCHAR C0238
ENCODING 238
SWIDTH 234 0
DWIDTH 5 0
BBX 6 14 0 0
BITMAP
70
58
88
04
30
30
30
30
30
30
30
30
30
30
ENDCHAR
STARTCHAR C0239
ENCODING 239
SWIDTH 187 0
DWIDTH 4 0
BBX 5 14 0 0
BITMAP
D8
D8
00
00
60
60
60
60
60
60
60
60
60
60
ENDCHAR
STARTCHAR C0240
ENCODING 240
SWIDTH 468 0
DWIDTH 10 0
BBX 8 14 1 0
BITMAP
22
7E
38
FC
8E
3E
7F
E7
C3
C3
C3
E7
7E
3C
ENDCHAR
STARTCHAR C0241
ENCODING 241
SWIDTH 468 0
DWIDTH 10 0
BBX 8 14 1 0
BITMAP
3E
7C
40
00
FC
FE
E7
C3
C3
C3
C3
C3
C3
C3
ENDCHAR
STARTCHAR C0242
ENCODING 242
SWIDTH 468 0
DWIDTH 10 0
BBX 8 14 1 0
BITMAP
38
18
0C
00
3C
7E
E7
C3
C3
C3
C3
E7
7E
3C
ENDCHAR
STARTCHAR C0243
ENCODING 243
SWIDTH 468 0
DWIDTH 10 0
BBX 8 14 1 0
BITMAP
1C
18
30
00
3C
7E
E7
C3
C3
C3
C3
E7
7E
3C
ENDCHAR
STARTCHAR C0244
ENCODING 244
SWIDTH 468 0
DWIDTH 10 0
BBX 8 14 1 0
BITMAP
18
3C
66
00
3C
7E
E7
C3
C3
C3
C3
E7
7E
3C
ENDCHAR
STARTCHAR C0245
ENCODING 245
SWIDTH 468 0
DWIDTH 10 0
BBX 8 14 1 0
BITMAP
3E
7C
40
00
3C
7E
E7
C3
C3
C3
C3
E7
7E
3C
ENDCHAR
STARTCHAR C0246
ENCODING 246
SWIDTH 421 0
DWIDTH 9 0
BBX 7 14 1 0
BITMAP
6C
6C
00
00
38
7C
EE
C6
C6
C6
C6
EE
7C
38
ENDCHAR
STARTCHAR C0247
ENCODING 247
SWIDTH 562 0
DWIDTH 12 0
BBX 10 8 1 4
BITMAP
0C00
0C00
0000
FFC0
FFC0
0000
0C00
0C00
ENDCHAR
STARTCHAR C0248
ENCODING 248
SWIDTH 468 0
DWIDTH 10 0
BBX 10 10 0 0
BITMAP
1FC0
3F80
7380
6780
6D80
6D80
7980
7380
7F00
FE00
ENDCHAR
STARTCHAR C0249
ENCODING 249
SWIDTH 468 0
DWIDTH 10 0
BBX 8 14 1 0
BITMAP
38
18
0C
00
C3
C3
C3
C3
C3
C3
C3
E7
7F
3F
ENDCHAR
STARTCHAR C0250
ENCODING 250
SWIDTH 468 0
DWIDTH 10 0
BBX 8 14 1 0
BITMAP
1C
18
30
00
C3
C3
C3
C3
C3
C3
C3
E7
7F
3F
ENDCHAR
STARTCHAR C0251
ENCODING 251
SWIDTH 468 0
DWIDTH 10 0
BBX 8 14 1 0
BITMAP
18
3C
66
00
C3
C3
C3
C3
C3
C3
C3
E7
7F
3F
ENDCHAR
STARTCHAR C0252
ENCODING 252
SWIDTH 468 0
DWIDTH 10 0
BBX 8 14 1 0
BITMAP
66
66
00
00
C3
C3
C3
C3
C3
C3
C3
E7
7F
3F
ENDCHAR
STARTCHAR C0253
ENCODING 253
SWIDTH 515 0
DWIDTH 11 0
BBX 11 19 0 -5
BITMAP
0600
0C00
0C00
0000
E0E0
60C0
71C0
3180
3B80
1B00
1B00
1F00
0E00
0E00
0C00
0C00
1C00
1800
3800
ENDCHAR
STARTCHAR C0254
ENCODING 254
SWIDTH 468 0
DWIDTH 10 0
BBX 8 19 1 -5
BITMAP
40
C0
C0
C0
FC
FE
C7
C3
C3
C3
C3
C7
FE
FC
C0
C0
C0
C0
80
ENDCHAR
STARTCHAR C0255
ENCODING 255
SWIDTH 515 0
DWIDTH 11 0
BBX 10 19 1 -5
BITMAP
3600
3600
0000
0000
C1C0
E380
6300
6300
7700
3600
3E00
3E00
1C00
1C00
1800
1800
3800
3000
7000
ENDCHAR
ENDFONT

